<svg xmlns="http://www.w3.org/2000/svg" width="24" height="24" fill="none" viewBox="0 0 24 24">
    <path fill="#000" fill-rule="evenodd" d="M4.5 11.25h-3l9.375-9h1.5l10.125 9h-3V21H15v-6H9v6H4.5v-9.75z" clip-rule="evenodd"/>
    <path fill="#000" d="M1.5 11.25l-.693-.721c-.294.282-.387.716-.235 1.094.153.379.52.627.928.627v-1zm3 0h1c0-.552-.448-1-1-1v1zm6.375-9v-1c-.258 0-.506.1-.693.279l.693.721zm1.5 0l.664-.747c-.183-.163-.42-.253-.664-.253v1zm10.125 9v1c.415 0 .787-.257.935-.645.147-.388.04-.827-.27-1.102l-.665.747zm-3 0v-1c-.552 0-1 .448-1 1h1zm0 9.75v1c.552 0 1-.448 1-1h-1zM15 21h-1c0 .552.448 1 1 1v-1zm0-6h1c0-.552-.448-1-1-1v1zm-6 0v-1c-.552 0-1 .448-1 1h1zm0 6v1c.552 0 1-.448 1-1H9zm-4.5 0h-1c0 .552.448 1 1 1v-1zm-3-8.75h3v-2h-3v2zm8.682-10.721l-9.375 9 1.386 1.442 9.375-9-1.386-1.442zm2.193-.279h-1.5v2h1.5v-2zm10.79 9.253l-10.126-9-1.328 1.494 10.125 9 1.328-1.494zM19.5 12.25h3v-2h-3v2zm1 8.75v-9.75h-2V21h2zM15 22h4.5v-2H15v2zm-1-7v6h2v-6h-2zm-5 1h6v-2H9v2zm1 5v-6H8v6h2zm-5.5 1H9v-2H4.5v2zm-1-10.75V21h2v-9.75h-2z"/>
</svg>
