<svg xmlns="http://www.w3.org/2000/svg" width="53" height="32" fill="none" viewBox="0 0 53 32">
    <path fill="#111" d="M11.378 14.772h8.276c1.27 0 2.317-1.033 2.317-2.317V8.031c0-1.27-1.033-2.317-2.317-2.317h-8.276c-1.27 0-2.316 1.033-2.316 2.317v4.438c.013 1.27 1.046 2.303 2.316 2.303zm.768-5.987h6.769V11.7h-6.77V8.785zM24.009 18.945c-3.517 1.033-6.239.39-6.923.195v-1.703c0-.85-.683-1.535-1.535-1.535-.851 0-1.535.684-1.535 1.536v1.716c-3.587.824-6.183-.042-6.238-.056-.796-.293-1.675.126-1.968.908-.293.795.111 1.674.907 1.967.098.042 1.717.614 4.215.614 1.367 0 2.986-.167 4.773-.697.042.027.083.07.14.083.097.042 1.716.614 4.214.614 1.368 0 3-.167 4.801-.697.81-.238 1.284-1.089 1.033-1.912-.224-.796-1.06-1.27-1.884-1.033zM31.433 17.493c2.708 0 4.927-2.205 4.927-4.926 0-2.722-2.205-4.927-4.927-4.927-2.721 0-4.912 2.22-4.912 4.94 0 2.722 2.205 4.913 4.912 4.913zm0-6.768c1.02 0 1.856.823 1.856 1.856 0 1.033-.823 1.856-1.856 1.856-1.032 0-1.842-.837-1.842-1.856 0-1.019.823-1.856 1.842-1.856zM45.515 10.78h-2.93V8.617c0-.851-.685-1.535-1.536-1.535s-1.535.684-1.535 1.535v7.243c0 .852.684 1.536 1.535 1.536.851 0 1.535-.684 1.535-1.536v-2.01h2.931c.851 0 1.535-.683 1.535-1.534 0-.852-.684-1.536-1.535-1.536zM44.217 23.201c-.042 0-4.41.238-6.378-4.284-.237-.559-.823-.921-1.437-.921-.614 0-1.173.363-1.41.92-1.926 4.467-6.182 4.313-6.35 4.285-.823-.07-1.577.586-1.633 1.438-.056.851.586 1.577 1.438 1.633.223.014 4.884.265 7.969-3.74 2.693 3.488 6.573 3.754 7.69 3.754.167 0 .279 0 .307-.014.851-.056 1.493-.782 1.437-1.633-.056-.852-.781-1.494-1.633-1.438z"/>
</svg>
