<svg xmlns="http://www.w3.org/2000/svg" width="295" height="23" fill="none" viewBox="0 0 295 23">
    <path fill="#111" d="M1.98 13.104l-1.703-1.56c.768-.352 1.488-.784 2.16-1.296C3.109 9.72 3.7 9.144 4.213 8.52c.512-.64.928-1.312 1.248-2.016.336-.72.568-1.456.696-2.208H1.189v-2.04h4.848V0h2.256v2.256h4.872v2.04H8.437c-.048.288-.104.576-.168.864-.064.288-.136.576-.216.864.656 1.008 1.528 1.912 2.616 2.712 1.088.784 2.224 1.384 3.408 1.8l-1.296 1.8c-1.056-.432-2.104-1.016-3.144-1.752-1.024-.752-1.88-1.552-2.568-2.4-.592 1.056-1.336 2.016-2.232 2.88-.88.864-1.832 1.544-2.856 2.04zm12.073 8.544H6.829c-1.696 0-2.984-.376-3.864-1.128-.88-.752-1.32-1.688-1.32-2.808 0-1.12.44-2.056 1.32-2.808.88-.752 2.168-1.128 3.864-1.128h7.224c1.68 0 2.96.376 3.84 1.128.896.752 1.344 1.688 1.344 2.808 0 1.12-.448 2.056-1.344 2.808-.88.752-2.16 1.128-3.84 1.128zm-7.224-1.992h7.224c.896 0 1.584-.168 2.064-.504.496-.336.744-.816.744-1.44 0-.608-.248-1.08-.744-1.416-.48-.352-1.168-.528-2.064-.528H6.829c-.912 0-1.616.176-2.112.528-.48.336-.72.808-.72 1.416 0 .624.24 1.104.72 1.44.496.336 1.2.504 2.112.504zM16.525.696h2.256v12.552h-2.256V8.064h-4.512v-2.04h4.512V.696zM39.67.696v15.672h-2.256V8.784h-7.248V6.768h7.248V4.944h-7.248V2.952h7.248V.696h2.256zm-5.424 9.912v2.04H22.078V1.128h2.256v9.48h9.912zm5.88 8.568v2.016H22.75v-6.528h2.256v4.512h15.12zM60.56.696v20.736h-2.256V.696h2.256zM44.984 7.464v6.768c0 1.584.272 2.728.816 3.432.56.704 1.384 1.056 2.472 1.056 1.056 0 1.864-.352 2.424-1.056.56-.704.84-1.848.84-3.432V7.464c0-1.584-.28-2.728-.84-3.432-.56-.72-1.368-1.08-2.424-1.08-1.088 0-1.912.36-2.472 1.08-.544.704-.816 1.848-.816 3.432zm-2.256 6.768V7.464c0-2.208.512-3.848 1.536-4.92 1.024-1.088 2.36-1.632 4.008-1.632 1.632 0 2.96.544 3.984 1.632 1.024 1.072 1.536 2.712 1.536 4.92v6.768c0 2.192-.512 3.824-1.536 4.896s-2.352 1.608-3.984 1.608c-1.648 0-2.984-.536-4.008-1.608s-1.536-2.704-1.536-4.896zM71.257 19.2h15.576v1.992H69.001v-6.96h7.56v-2.04h-8.688v-2.016h19.848v2.016h-8.904v2.04h7.776V16.2H71.257v3zM86.593 1.128v7.224H69.001V1.128h17.592zM71.257 6.384h13.08V3.12h-13.08v3.264zM107.483 15.792h-2.256V3.168H89.891v-2.04h17.592v14.664zm1.128 2.688v2.04H88.763v-2.04h7.224V8.952h2.256v9.528h10.368zM109.46 22.56l-.672-.912c.48-.32.824-.696 1.032-1.128.208-.432.312-1.032.312-1.8v-1.104h2.592v1.104c0 .976-.288 1.792-.864 2.448-.56.672-1.36 1.136-2.4 1.392zM123.19.912h2.256c0 1.152-.04 2.312-.12 3.48-.08 1.168-.192 2.328-.336 3.48.528 2.064 1.32 4.08 2.376 6.048 1.056 1.968 2.328 3.656 3.816 5.064l-1.656 1.536c-1.152-1.136-2.176-2.432-3.072-3.888-.896-1.472-1.64-2.968-2.232-4.488-.368 1.536-.824 3.04-1.368 4.512-.528 1.456-1.168 2.84-1.92 4.152l-2.016-1.056c.784-1.376 1.448-2.824 1.992-4.344.544-1.52.984-3.08 1.32-4.68.336-1.6.576-3.224.72-4.872.16-1.648.24-3.296.24-4.944zm12.192-.216h2.256v20.736h-2.256V.696zM158.527.696v20.736h-2.256V.696h2.256zM140.935 20.52V1.128h2.256V18.48h10.824v2.04h-13.08zM161.585 14.232V7.464c0-2.144.496-3.768 1.488-4.872.992-1.12 2.304-1.68 3.936-1.68 1.632 0 2.944.56 3.936 1.68.992 1.104 1.488 2.728 1.488 4.872v6.768c0 2.128-.496 3.744-1.488 4.848-.992 1.104-2.304 1.656-3.936 1.656-1.632 0-2.944-.552-3.936-1.656-.992-1.104-1.488-2.72-1.488-4.848zm2.256-6.768v6.768c0 1.584.272 2.728.816 3.432.544.704 1.328 1.056 2.352 1.056 1.008 0 1.784-.352 2.328-1.056.56-.704.84-1.848.84-3.432V7.464c0-1.584-.28-2.728-.84-3.432-.544-.72-1.32-1.08-2.328-1.08-1.024 0-1.808.36-2.352 1.08-.544.704-.816 1.848-.816 3.432zm13.32 3.6h-3.84v-2.04h3.84V.696h2.256v20.736h-2.256V11.064zM182.714 1.128h9.696v4.488c0 1.616-.208 3.16-.624 4.632-.4 1.456-.984 2.824-1.752 4.104-.784 1.264-1.744 2.424-2.88 3.48-1.136 1.04-2.432 1.944-3.888 2.712l-1.464-1.704c2.72-1.36 4.792-3.16 6.216-5.4 1.424-2.24 2.136-4.712 2.136-7.416V3.168h-7.44v-2.04zm17.136 9.864v10.44h-2.256V.696h2.256v8.28h2.928v2.016h-2.928zM228.596 4.968v2.04h-2.928v4.896h-2.256V.696h2.256v4.272h2.928zm-7.44 3.84v2.04h-12.624v-9.72h11.28v2.04h-9.024v5.64h10.368zm4.512 3.84v8.544h-16.68v-8.544h2.28v2.016h12.144v-2.016h2.256zM211.244 19.2h12.168v-2.544h-12.168V19.2zM246.557 13.32v7.872h-16.68V13.32h2.28v1.92h12.144v-1.92h2.256zm-11.28-.696h-.888c-.688 0-1.32-.088-1.896-.264-.576-.192-1.08-.464-1.512-.816-.416-.352-.744-.768-.984-1.248s-.36-1.024-.36-1.632c0-.576.12-1.104.36-1.584.24-.496.568-.912.984-1.248.432-.352.936-.624 1.512-.816.576-.192 1.208-.288 1.896-.288h.888c.672 0 1.296.096 1.872.288.576.192 1.08.464 1.512.816.416.336.744.752.984 1.248.256.48.384 1.008.384 1.584 0 .608-.128 1.152-.384 1.632-.24.48-.568.896-.984 1.248-.432.352-.936.624-1.512.816-.576.176-1.2.264-1.872.264zm14.208-7.08V7.56h-2.928v4.8h-2.256V.696h2.256v4.848h2.928zm-8.328-3.72v1.968h-12.408V1.824h4.944V0h2.256v1.824h5.208zM232.133 19.2h12.168v-1.968h-12.168V19.2zm2.256-8.496h.888c.672 0 1.256-.184 1.752-.552.496-.368.744-.864.744-1.488 0-.608-.248-1.104-.744-1.488-.496-.384-1.08-.576-1.752-.576h-.888c-.688 0-1.28.192-1.776.576-.48.384-.72.88-.72 1.488 0 .624.24 1.12.72 1.488.496.368 1.088.552 1.776.552zM267.903.696v20.736h-2.256V.696h2.256zM250.311 20.52V1.128h2.256V18.48h10.824v2.04h-13.08zM283.824 20.52H271.2V1.128h11.28v2.04h-9.024V18.48h10.368v2.04zm4.512-9.528v10.44h-2.256V.696h2.256v8.28h2.928v2.016h-2.928zM294.369 20.304h-2.712v-2.688h2.712v2.688z"/>
</svg>
