<svg xmlns="http://www.w3.org/2000/svg" width="25" height="24" fill="none" viewBox="0 0 25 24">
    <path fill="#000" fill-rule="evenodd" d="M7.1 2.679c.003.004.002.01-.002.014-1.322 1.005-1.894 2.743-1.318 4.34.757 2.095 1.846 4.847 2.97 6.793 1.123 1.946 2.963 4.266 4.399 5.969 1.023 1.213 2.656 1.619 4.117 1.14.026-.008.055 0 .073.021.02.026.057.032.085.015L19 20.05c1.051-.616 1.408-1.964.799-3.018l-1.072-1.857c-.4-.693-1.286-.93-1.979-.53-.692.4-1.578.162-1.978-.53L11.39 8.26c-.368-.64-.15-1.457.49-1.826s.858-1.186.49-1.825l-1.491-2.582c-.37-.639-1.186-.858-1.826-.489L7.9 2.205c-.003.001-.006 0-.008-.002-.001-.003-.004-.003-.007-.002l-.364.21c-.085.05-.167.101-.248.155l-.169.098c-.005.003-.007.01-.004.015z" clip-rule="evenodd"/>
</svg>
