<svg xmlns="http://www.w3.org/2000/svg" width="25" height="24" fill="none" viewBox="0 0 25 24">
    <path fill="#000" d="M12.056 0C5.674 0 .5 4.698.5 10.495c0 4.28 1.826 6.324 4.326 8.187l.012.005v5.024c0 .237.275.373.469.232l4.383-3.196.094.04c.735.133 1.495.204 2.272.204 6.382 0 11.556-4.699 11.556-10.496C23.612 4.698 18.438 0 12.056 0zM8.182 13.154c1.133 0 2.102-.665 2.393-1.695h1.677c-.41 1.98-1.98 3.278-4.068 3.278-2.43 0-4.355-1.779-4.355-4.254 0-2.476 1.925-4.254 4.355-4.254 2.11 0 3.69 1.323 4.08 3.336h-1.672c-.254-1.094-1.257-1.777-2.41-1.777-1.632 0-2.719 1.143-2.719 2.694 0 1.55 1.235 2.672 2.72 2.672zm11.04 1.42h-1.536v-3.4c0-.784-.464-1.205-1.178-1.205-.798 0-1.31.48-1.31 1.449v3.156h-1.535V6.255h1.535v3.13c.37-.55.964-.819 1.774-.819.654 0 1.19.21 1.607.643.428.433.643 1.016.643 1.776v3.589z"/>
</svg>
