<svg xmlns="http://www.w3.org/2000/svg" width="24" height="24" fill="none" viewBox="0 0 24 24">
    <rect width="16" height="17" x="4" y="2" stroke="#111" stroke-linecap="round" stroke-linejoin="round" stroke-width="2" rx="1"/>
    <path fill="#111" d="M3 18v2h2v-2H3zm3 5h11.553v-2H6v2zm13.369-.24l.89-.239-.518-1.931-.891.239.519 1.931zm-1.816.24c.613 0 1.224-.08 1.816-.24l-.519-1.931c-.423.113-.859.171-1.297.171v2zM3 20c0 1.657 1.343 3 3 3v-2c-.552 0-1-.448-1-1H3z"/>
    <path stroke="#111" stroke-linecap="round" stroke-width="2" d="M9 8c0-.667.6-2 3-2s3 1.333 3 2c-.27 1.619-1.267 2.073-2.129 2.148-.68.06-1.371.557-1.371 1.24V12M11.5 14.5v.1"/>
</svg>
