<svg xmlns="http://www.w3.org/2000/svg" width="16" height="17" fill="none" viewBox="0 0 16 17">
    <path fill="#000" fill-rule="evenodd" d="M8 9c1.105 0 2-.895 2-2s-.895-2-2-2-2 .895-2 2 .895 2 2 2zm4.976 2.072C14.227 9.898 15 8.282 15 6.5 15 2.91 11.866 0 8 0S1 2.91 1 6.5c0 1.783.773 3.398 2.024 4.572l4.239 4.624c.396.432 1.078.432 1.474 0l4.239-4.624z" clip-rule="evenodd"/>
    <path fill="#000" fill-rule="evenodd" d="M11.502 9.72c.034-.037.069-.072.105-.107C12.49 8.785 13 7.684 13 6.5 13 4.152 10.904 2 8 2S3 4.152 3 6.5c0 1.185.51 2.285 1.393 3.114.037.034.072.07.106.107L8 13.54l3.502-3.82zm1.474 1.352l-4.239 4.624c-.396.432-1.078.432-1.474 0l-4.239-4.624C1.773 9.898 1 8.282 1 6.5 1 2.91 4.134 0 8 0s7 2.91 7 6.5c0 1.783-.773 3.398-2.024 4.572z" clip-rule="evenodd"/>
</svg>
