<svg xmlns="http://www.w3.org/2000/svg" width="16" height="16" fill="none" viewBox="0 0 16 16">
    <path stroke="#000" stroke-linecap="round" stroke-width="2" d="M5 1.667L5 2.333M11 1.667L11 2.333"/>
    <mask id="0hg2k2na6a" fill="#fff">
        <path fill-rule="evenodd" d="M1.333 4.667c0-1.105.896-2 2-2h9.334c1.104 0 2 .895 2 2V6H1.333V4.667zm0 2.333v6.333c0 1.105.896 2 2 2h9.334c1.104 0 2-.895 2-2V7H1.333zm9.887 1.683c.175.213.144.529-.07.704l-3.252 2.666c-.175.144-.424.152-.608.02L5.209 10.58c-.225-.161-.276-.474-.115-.698.16-.225.473-.276.698-.115l1.769 1.27 2.955-2.424c.214-.175.529-.144.704.07z" clip-rule="evenodd"/>
    </mask>
    <path fill="#000" fill-rule="evenodd" d="M1.333 4.667c0-1.105.896-2 2-2h9.334c1.104 0 2 .895 2 2V6H1.333V4.667zm0 2.333v6.333c0 1.105.896 2 2 2h9.334c1.104 0 2-.895 2-2V7H1.333zm9.887 1.683c.175.213.144.529-.07.704l-3.252 2.666c-.175.144-.424.152-.608.02L5.209 10.58c-.225-.161-.276-.474-.115-.698.16-.225.473-.276.698-.115l1.769 1.27 2.955-2.424c.214-.175.529-.144.704.07z" clip-rule="evenodd"/>
    <path fill="#000" d="M14.667 6v2h2V6h-2zM1.333 6h-2v2h2V6zm0 1V5h-2v2h2zm13.334 0h2V5h-2v2zM11.15 9.387L9.882 7.84l1.268 1.547zm.07-.704L9.673 9.951l1.547-1.268zm-3.322 3.37L6.63 10.507l1.268 1.546zm-.608.02l1.166-1.625-1.166 1.625zM5.209 10.58l1.165-1.625L5.21 10.58zm-.115-.698l1.625 1.166-1.625-1.166zm.698-.115l-1.166 1.625 1.166-1.625zm1.769 1.27l-1.166 1.625 1.247.894 1.187-.973-1.268-1.546zm2.955-2.424l1.268 1.547-1.268-1.547zM3.333.667c-2.209 0-4 1.79-4 4h4v-4zm9.334 0H3.333v4h9.334v-4zm4 4c0-2.21-1.791-4-4-4v4h4zm0 1.333V4.667h-4V6h4zM1.333 8h13.334V4H1.333v4zm-2-3.333V6h4V4.667h-4zm0 2.333v6.333h4V7h-4zm0 6.333c0 2.21 1.791 4 4 4v-4h-4zm4 4h9.334v-4H3.333v4zm9.334 0c2.209 0 4-1.79 4-4h-4v4zm4-4V7h-4v6.333h4zm-2-8.333H1.333v4h13.334V5zm-2.248 5.933c1.067-.875 1.223-2.45.348-3.518L9.673 9.95c-.525-.64-.431-1.586.21-2.11l2.536 3.092zM9.167 13.6l3.252-2.667L9.882 7.84 6.63 10.507 9.167 13.6zm-3.043.098c.92.66 2.167.62 3.043-.098L6.63 10.507c.525-.43 1.274-.455 1.826-.06l-2.332 3.25zm-2.081-1.493l2.08 1.493 2.333-3.25-2.082-1.493-2.331 3.25zm-.574-3.49c-.805 1.123-.548 2.685.574 3.49l2.331-3.25c.674.483.828 1.42.345 2.093l-3.25-2.332zm3.488-.573c-1.121-.805-2.683-.548-3.488.574l3.25 2.332c-.483.673-1.42.827-2.093.344l2.331-3.25zm1.77 1.27l-1.77-1.27-2.331 3.25 1.77 1.27 2.331-3.25zm.521-2.345L6.293 9.49l2.536 3.093 2.955-2.423-2.536-3.093zm3.519.348c-.876-1.068-2.451-1.224-3.519-.348l2.537 3.093c-.641.525-1.586.432-2.112-.209l3.094-2.536z" mask="url(#0hg2k2na6a)"/>
</svg>
